<svg width="82" height="82" viewBox="0 0 82 82" fill="none" xmlns="http://www.w3.org/2000/svg">
<rect x="0.248031" y="0.248031" width="81.5039" height="81.5039" rx="3.72047" fill="#F3F3F3"/>
<g clip-path="url(#clip0_1965_23690)">
<path fill-rule="evenodd" clip-rule="evenodd" d="M34 32.0002C34 31.735 34.1054 31.4807 34.2929 31.2931C34.4804 31.1056 34.7348 31.0002 35 31.0002H47C47.2652 31.0002 47.5196 31.1056 47.7071 31.2931C47.8946 31.4807 48 31.735 48 32.0002C48 32.2655 47.8946 32.5198 47.7071 32.7074C47.5196 32.8949 47.2652 33.0002 47 33.0002H35C34.7348 33.0002 34.4804 32.8949 34.2929 32.7074C34.1054 32.5198 34 32.2655 34 32.0002ZM34 34.0002C33.4696 34.0002 32.9609 34.211 32.5858 34.586C32.2107 34.9611 32 35.4698 32 36.0002V48.0002C32 48.5307 32.2107 49.0394 32.5858 49.4145C32.9609 49.7895 33.4696 50.0002 34 50.0002H48C48.5304 50.0002 49.0391 49.7895 49.4142 49.4145C49.7893 49.0394 50 48.5307 50 48.0002V36.0002C50 35.4698 49.7893 34.9611 49.4142 34.586C49.0391 34.211 48.5304 34.0002 48 34.0002H34ZM48 42.6862V36.0002H34V48.0002H34.929L43.237 39.6912C43.3531 39.5751 43.4909 39.483 43.6426 39.4202C43.7942 39.3574 43.9568 39.325 44.121 39.325C44.2852 39.325 44.4478 39.3574 44.5994 39.4202C44.7511 39.483 44.8889 39.5751 45.005 39.6912L48 42.6862ZM37.5 41.0002C37.8978 41.0002 38.2794 40.8422 38.5607 40.5609C38.842 40.2796 39 39.8981 39 39.5002C39 39.1024 38.842 38.7209 38.5607 38.4396C38.2794 38.1583 37.8978 38.0002 37.5 38.0002C37.1022 38.0002 36.7206 38.1583 36.4393 38.4396C36.158 38.7209 36 39.1024 36 39.5002C36 39.8981 36.158 40.2796 36.4393 40.5609C36.7206 40.8422 37.1022 41.0002 37.5 41.0002Z" fill="#BFBFBF"/>
</g>
<rect x="0.248031" y="0.248031" width="81.5039" height="81.5039" rx="3.72047" stroke="#BFBFBF" stroke-width="0.496063" stroke-dasharray="2.48 2.48"/>
<defs>
<clipPath id="clip0_1965_23690">
<rect width="24" height="24" fill="white" transform="translate(29 29)"/>
</clipPath>
</defs>
</svg>
